<?xml version="1.0" encoding="UTF-8"?>
<svg width="162px" height="45px" viewBox="0 0 162 45" version="1.1" xmlns="http://www.w3.org/2000/svg" xmlns:xlink="http://www.w3.org/1999/xlink">
    <!-- Generator: Sketch 49.1 (51147) - http://www.bohemiancoding.com/sketch -->
    <title>chalk</title>
    <desc>Created with Sketch.</desc>
    <defs>
        <path d="M17.1307172,14.6863734 L17.5142759,14.0936139 L21.9925655,18.4458544 L21.6941241,18.8247722 C21.5598483,18.9953797 18.3366207,23 12.256731,23 C5.38377931,23 0,17.9498987 0,11.5026203 C0,5.05548734 5.38377931,0.00524050633 12.256731,0.00524050633 C18.2898897,0.00524050633 21.4686621,3.92412025 21.6011172,4.09094304 L21.9220138,4.49577215 L17.2669655,8.47855696 L16.8906897,8.0155 C16.8251448,7.93601899 15.2186897,6.02891139 12.256731,6.02891139 C9.51295172,6.02891139 6.73548966,7.90908861 6.73548966,11.5026203 C6.73548966,15.0962975 9.51295172,16.9766203 12.256731,16.9766203 C15.6104414,16.9766203 17.116,14.7092278 17.1307172,14.6863734 Z" id="path-1"></path>
        <path d="M6.67282609,0 L6.67282609,14.2862288 C7.81915217,13.3256568 9.492,12.1531568 12.1994783,12.1531568 C14.4893913,12.1531568 16.676587,12.9517797 18.2333261,14.4022034 C19.924587,15.9770551 20.8864783,18.1663347 20.8864783,20.7329025 L20.8864783,34.9460169 L14.2381522,34.9460169 L14.2381522,22.0769915 C14.2381522,18.7831356 11.851,18.2910593 10.4555652,18.2910593 C8.30671739,18.2910593 6.90215217,20.1769068 6.67282609,20.6569703 L6.67282609,34.9460169 L0.0246521739,34.9460169 L0.0246521739,0 L6.67282609,0 Z" id="path-3"></path>
        <path d="M17.1279484,8.52834177 C16.8949161,8.02627215 15.3140129,6.02905696 12.4733419,6.02905696 C9.16923871,6.02905696 6.93336774,8.22875949 6.93336774,11.5024747 C6.93336774,14.7767722 9.16381935,16.9766203 12.4682323,16.9766203 C15.3067355,16.9766203 16.8949161,14.9817342 17.1279484,14.4768987 L17.1279484,8.52834177 Z M17.5941677,2.28922785 L17.5941677,0.60964557 L23.8877419,0.60964557 L23.8877419,22.3734684 L17.5941677,22.3734684 L17.5941677,20.7534241 C16.4286968,21.7649873 14.5182968,23 11.4768,23 C5.11153548,23 0.0915096774,17.9497532 0.0915096774,11.5024747 C0.0915096774,5.05563291 5.10023226,0.00524050633 11.4656516,0.00524050633 C14.4620903,0.00524050633 16.4286968,1.27373418 17.5941677,2.28922785 Z" id="path-5"></path>
        <path d="M0.009,23.2129714 L0.009,21.9287362 C0.0572310574,20.2021662 0.300035918,18.4813017 0.73725,16.8105263 C1.3605,14.4288722 2.37645,12.1544361 3.7308,10.1021053 C5.0673,8.07804511 6.72825,6.27323308 8.63115,4.77714286 C10.5504,3.26887218 12.7119,2.07669173 15.00975,1.26646617 C17.39235,0.425714286 19.9134,0 22.43805,0 C22.6326,0 22.82655,0.00240601504 23.0211,0.00736842105 C25.5351,0.0718796992 28.03335,0.56075188 30.38445,1.45714286 C32.65875,2.3237594 34.78665,3.56676692 36.66555,5.11924812 C38.5329,6.66135338 40.14825,8.50586466 41.4348,10.5628571 C42.74205,12.6514286 43.6986,14.9554887 44.2629,17.357594 C44.87775,19.9744361 45.0096,22.7018045 44.6814,25.3700752 C44.331,28.2120301 43.413,30.9789474 42.03375,33.4845113 C40.68645,35.9315789 38.64585,38.1201504 36.7023,39.8857143 L36.7023,28.4945865 C36.40335,28.5342857 35.81085,28.5715789 35.3415,28.6067669 C33.65715,28.7332331 32.02005,28.8454135 30.32955,28.8225564 C28.968,28.803609 27.6045,28.7144361 26.25315,28.5442105 C24.8286,28.364812 23.43105,28.1275188 22.0716,27.6487218 C20.8758,27.2279699 19.72725,26.6595489 18.6696,25.9580451 C17.79105,25.3754887 16.9581,24.7066165 16.218,23.9545865 C15.15135,22.8706767 14.18565,21.5231579 13.00335,20.5416541 C12.65295,20.2509774 11.5257,19.8009023 10.4253,20.0368421 C9.57315,20.2195489 8.4132,20.5439098 7.90275,22.2246617 C7.8453,22.4142857 7.641,22.8381955 7.593,23.3780451 C7.47825,24.6679699 7.69785,39.6269173 7.60365,39.5437594 C5.50455,37.6923308 3.80085,35.4494737 2.51355,32.9572932 C1.19235,30.3992481 0.3705,27.5890226 0.10065,24.7189474 C0.0535944989,24.2181351 0.0230458535,23.7157778 0.009,23.2129714 Z M15.5028,18.1748872 C15.86235,18.5025564 16.36425,19.1724812 16.6509,19.5658647 C16.87215,19.8708271 17.6301,20.9694737 17.8023,21.1669173 C19.1334,22.6980451 20.8305,23.8924812 22.71705,24.624812 C25.5168,25.7111278 28.6755,25.772782 31.58415,25.1204511 C34.1145,24.5526316 36.48495,23.2926316 38.12595,21.2384962 C36.48315,21.8442105 34.6965,21.9748872 32.9901,21.5756391 C32.19345,21.3897744 31.4247,21.0965414 30.69705,20.7225564 C30.04575,20.3875188 29.4132,20.0052632 28.88085,19.4962406 C27.825,18.4881203 27.0816,17.1514286 26.59305,15.7834586 C26.32065,15.0195489 25.70325,12.7992481 24.59115,11.4251128 C23.57715,10.1724812 22.18545,9.25609023 20.7057,8.6393985 C19.19295,8.0124812 17.53305,7.72902256 15.90165,7.89067669 C14.2395,8.05458647 12.57675,8.60075188 11.19915,9.5443609 C9.8487,10.4700752 8.82495,11.8493233 8.2332,13.3857143 C7.63395,14.9443609 7.5732,16.9578947 7.73115,18.6108271 C8.38215,17.6291729 9.94095,16.6249624 12.35805,16.7929323 C13.40655,16.8658647 14.52045,17.2784962 15.5028,18.1748872 Z M36.7968,18.8369925 C36.7968,18.7926316 36.84615,15.5278195 36.83775,15.3073684 C36.83775,15.3073684 36.72705,14.3018045 36.21465,13.7606015 C35.37765,12.8754887 33.2955,13.0945865 32.9352,13.0945865 L28.80345,13.0945865 C28.80345,13.0945865 29.21565,15.2983459 29.97945,16.4533835 C31.2879,18.4317293 32.60985,18.6702256 33.01695,18.8063158 C35.0532,19.4885714 36.7968,18.8369925 36.7968,18.8369925 Z" id="path-7"></path>
        <path d="M3.95777778,2.00562963 C3.95777778,2.82192593 3.42577778,3.56903704 2.65555556,3.83274074 C1.87718519,4.09925926 0.994074074,3.82607407 0.49837037,3.16859259 C-0.278518519,2.13777778 0.193777778,0.595703704 1.41214815,0.17837037 C2.64074074,-0.24237037 3.95777778,0.704148148 3.95777778,2.00562963 Z" id="path-9"></path>
        <path d="M1.99303704,0.0752592593 C2.80681481,0.0752592593 3.55125926,0.608592593 3.81496296,1.38162963 C4.08074074,2.16296296 3.808,3.04903704 3.15244444,3.54622222 C2.12474074,4.32548148 0.588444444,3.85185185 0.172148148,2.62948148 C-0.247407407,1.39688889 0.696444444,0.0752592593 1.99303704,0.0752592593 Z" id="path-11"></path>
        <path d="M0.761303371,2.6688 C0.0758089888,2.34386667 -0.197044944,1.5632 0.151764045,0.924933333 C0.500719101,0.286666667 1.33929213,0.0325333333 2.02478652,0.357466667 C3.42031461,1.01866667 4.89457303,1.33066667 6.46830337,1.29733333 C8.04568539,1.26386667 9.52724719,0.887733333 10.9316854,0.1628 C11.6043258,-0.1844 12.4521011,0.0418666667 12.8250112,0.668266667 C13.1980674,1.29453333 12.9550112,2.08386667 12.2822247,2.43106667 C10.4848652,3.3588 8.56174157,3.8472 6.53169663,3.89013333 C4.498,3.93306667 2.5677191,3.52466667 0.761303371,2.6688 Z" id="path-13"></path>
    </defs>
    <g id="Home-Page" stroke="none" stroke-width="1" fill="none" fill-rule="evenodd">
        <g id="Desktop-HD" transform="translate(-558.000000, -860.000000)">
            <g id="chalk" transform="translate(558.000000, 860.000000)">
                <g id="Group-3" transform="translate(50.000000, 17.000000)">
                    <mask id="mask-2" fill="white">
                        <use xlink:href="#path-1"></use>
                    </mask>
                    <g id="Clip-2"></g>
                    <polygon id="Fill-1" fill="#FFFFFF" mask="url(#mask-2)" points="-0.00910344828 23.0087342 22.0030345 23.0087342 22.0030345 0.00291139241 -0.00910344828 0.00291139241"></polygon>
                </g>
                <g id="Group-6" transform="translate(75.000000, 4.000000)">
                    <mask id="mask-4" fill="white">
                        <use xlink:href="#path-3"></use>
                    </mask>
                    <g id="Clip-5"></g>
                    <polygon id="Fill-4" fill="#FFFFFF" mask="url(#mask-4)" points="0.0152173913 34.9614407 20.8873913 34.9614407 20.8873913 -0.00889830508 0.0152173913 -0.00889830508"></polygon>
                </g>
                <g id="Group-9" transform="translate(99.000000, 17.000000)">
                    <mask id="mask-6" fill="white">
                        <use xlink:href="#path-5"></use>
                    </mask>
                    <g id="Clip-8"></g>
                    <polygon id="Fill-7" fill="#FFFFFF" mask="url(#mask-6)" points="0.0774193548 23.0087342 23.8978065 23.0087342 23.8978065 0.00291139241 0.0774193548 0.00291139241"></polygon>
                </g>
                <g id="Group-13">
                    <mask id="mask-8" fill="white">
                        <use xlink:href="#path-7"></use>
                    </mask>
                    <g id="Clip-12"></g>
                    <polygon id="Fill-11" fill="#FFFFFF" mask="url(#mask-8)" points="0.009 39.8887218 44.865 39.8887218 44.865 -0.00902255639 0.009 -0.00902255639"></polygon>
                </g>
                <g id="Group-16" transform="translate(15.000000, 32.000000)">
                    <mask id="mask-10" fill="white">
                        <use xlink:href="#path-9"></use>
                    </mask>
                    <g id="Clip-15"></g>
                    <polygon id="Fill-14" fill="#FFFFFF" mask="url(#mask-10)" points="0.115555556 3.93777778 3.97333333 3.93777778 3.97333333 0.0622222222 0.115555556 0.0622222222"></polygon>
                </g>
                <g id="Group-19" transform="translate(26.000000, 32.000000)">
                    <mask id="mask-12" fill="white">
                        <use xlink:href="#path-11"></use>
                    </mask>
                    <g id="Clip-18"></g>
                    <polygon id="Fill-17" fill="#FFFFFF" mask="url(#mask-12)" points="0.0622222222 3.93777778 3.92 3.93777778 3.92 0.0622222222 0.0622222222 0.0622222222"></polygon>
                </g>
                <g id="Group-22" transform="translate(17.000000, 41.000000)">
                    <mask id="mask-14" fill="white">
                        <use xlink:href="#path-13"></use>
                    </mask>
                    <g id="Clip-21"></g>
                    <polygon id="Fill-20" fill="#FFFFFF" mask="url(#mask-14)" points="-0.00876404494 3.896 12.9970787 3.896 12.9970787 -0.008 -0.00876404494 -0.008"></polygon>
                </g>
                <polygon id="Path-2" fill="#FFFFFF" points="126.981102 3.97565458 133.741312 3.97565458 133.741312 38.9084873 127.002261 38.9084873"></polygon>
                <polygon id="Path-3" fill="#FFFFFF" points="139.348307 4.01003149 145.957156 4.01003149 145.957156 24.2613797 152.724273 16.7614095 161.334796 16.7614095 151.436032 27.2048468 161.854914 38.8231262 153.199299 38.8231262 145.957156 30.9313931 145.957156 38.8231262 139.348307 38.8231262"></polygon>
            </g>
        </g>
    </g>
</svg>