<?xml version="1.0" encoding="UTF-8"?>
<svg width="160px" height="80px" viewBox="0 0 160 80" version="1.1" xmlns="http://www.w3.org/2000/svg" xmlns:xlink="http://www.w3.org/1999/xlink">
    <!-- Generator: Sketch 48.2 (47327) - http://www.bohemiancoding.com/sketch -->
    <title>logo-whitebg</title>
    <desc>Created with Sketch.</desc>
    <defs></defs>
    <g id="Page-1" stroke="none" stroke-width="1" fill="none" fill-rule="evenodd">
        <g id="logo-whitebg">
            <g id="Group" transform="translate(0.000000, 5.000000)">
                <path d="M7.84,26.36 L9.64,26.36 C11.0000068,26.36 12.213328,26.1466688 13.28,25.72 C14.346672,25.2933312 15.246663,24.7066704 15.98,23.96 C16.713337,23.2133296 17.2733314,22.3266718 17.66,21.3 C18.0466686,20.2733282 18.24,19.1466728 18.24,17.92 C18.24,16.719994 18.040002,15.6000052 17.64,14.56 C17.239998,13.5199948 16.673337,12.6266704 15.94,11.88 C15.206663,11.1333296 14.306672,10.5466688 13.24,10.12 C12.173328,9.6933312 10.97334,9.48 9.64,9.48 L7.84,9.48 L7.84,26.36 Z M0,2.84 L11.6,2.84 C13.6533436,2.84 15.579991,3.2533292 17.38,4.08 C19.180009,4.9066708 20.7533266,6.0066598 22.1,7.38 C23.4466734,8.7533402 24.5066628,10.3533242 25.28,12.18 C26.0533372,14.0066758 26.44,15.91999 26.44,17.92 C26.44,19.8933432 26.0600038,21.7933242 25.3,23.62 C24.5399962,25.4466758 23.4866734,27.0533264 22.14,28.44 C20.7933266,29.8266736 19.220009,30.9333292 17.42,31.76 C15.619991,32.5866708 13.6800104,33 11.6,33 L0,33 L0,2.84 Z M43.3599999,19.76 C43.1199987,18.7466616 42.6266703,17.9333364 41.8799999,17.32 C41.1333295,16.7066636 40.2266719,16.4 39.1599999,16.4 C38.0399943,16.4 37.1266701,16.6933304 36.4199999,17.28 C35.7133297,17.8666696 35.2666675,18.693328 35.0799999,19.76 L43.3599999,19.76 Z M34.8799999,23.96 C34.8799999,27.0800156 36.3466519,28.64 39.2799999,28.64 C40.8533411,28.64 42.0399959,28.0000064 42.8399999,26.72 L49.8399999,26.72 C48.4266595,31.4133568 44.8933615,33.76 39.2399999,33.76 C37.5066579,33.76 35.9200071,33.5000026 34.4799999,32.98 C33.0399927,32.4599974 31.8066717,31.7200048 30.7799999,30.76 C29.7533281,29.7999952 28.9600027,28.65334 28.3999999,27.32 C27.8399971,25.98666 27.5599999,24.4933416 27.5599999,22.84 C27.5599999,21.1333248 27.8266639,19.5933402 28.3599999,18.22 C28.8933359,16.8466598 29.6533283,15.6800048 30.6399999,14.72 C31.6266715,13.7599952 32.8199929,13.0200026 34.2199999,12.5 C35.6200069,11.9799974 37.1999911,11.72 38.9599999,11.72 C40.6933419,11.72 42.2533263,11.9799974 43.6399999,12.5 C45.0266735,13.0200026 46.1999951,13.7733284 47.1599999,14.76 C48.1200047,15.7466716 48.8533307,16.9533262 49.3599999,18.38 C49.8666691,19.8066738 50.1199999,21.4133244 50.1199999,23.2 L50.1199999,23.96 L34.8799999,23.96 Z M65.4399998,17.76 C64.1066598,17.0666632 62.8000062,16.72 61.5199998,16.72 C60.8533298,16.72 60.3133352,16.853332 59.8999998,17.12 C59.4866644,17.386668 59.2799998,17.7466644 59.2799998,18.2 C59.2799998,18.4400012 59.3133328,18.6333326 59.3799998,18.78 C59.4466668,18.9266674 59.593332,19.066666 59.8199998,19.2 C60.0466676,19.333334 60.3799976,19.4533328 60.8199998,19.56 C61.260002,19.6666672 61.8399962,19.7999992 62.5599998,19.96 C64.5600098,20.360002 66.0533282,21.0733282 67.0399998,22.1 C68.0266714,23.1266718 68.5199998,24.439992 68.5199998,26.04 C68.5199998,27.240006 68.2800022,28.3199952 67.7999998,29.28 C67.3199974,30.2400048 66.6533374,31.0466634 65.7999998,31.7 C64.9466622,32.3533366 63.9200058,32.8599982 62.7199998,33.22 C61.5199938,33.5800018 60.200007,33.76 58.7599998,33.76 C55.9866526,33.76 53.2533466,32.9733412 50.5599998,31.4 L53.1999998,26.28 C55.2266766,27.6666736 57.1466574,28.36 58.9599998,28.36 C59.6266698,28.36 60.173331,28.2133348 60.5999998,27.92 C61.0266686,27.6266652 61.2399998,27.2533356 61.2399998,26.8 C61.2399998,26.533332 61.2066668,26.3133342 61.1399998,26.14 C61.0733328,25.9666658 60.9333342,25.8066674 60.7199998,25.66 C60.5066654,25.5133326 60.1933352,25.3800006 59.7799998,25.26 C59.3666644,25.1399994 58.8266698,25.013334 58.1599998,24.88 C55.9199886,24.4266644 54.3533376,23.7533378 53.4599998,22.86 C52.566662,21.9666622 52.1199998,20.7333412 52.1199998,19.16 C52.1199998,18.0133276 52.333331,16.9800046 52.7599998,16.06 C53.1866686,15.1399954 53.7999958,14.3600032 54.5999998,13.72 C55.4000038,13.0799968 56.3666608,12.5866684 57.4999998,12.24 C58.6333388,11.8933316 59.8933262,11.72 61.2799998,11.72 C63.5466778,11.72 65.7466558,12.1599956 67.8799998,13.04 L65.4399998,17.76 Z M77.0399997,12.48 L77.0399997,65.98 L69.7999997,65.98 L69.7999997,12.48 L77.0399997,12.48 Z M86.3199996,22.64 C86.3199996,23.30667 86.4399984,23.9266638 86.6799996,24.5 C86.9200008,25.0733362 87.2466642,25.5733312 87.6599996,26 C88.073335,26.4266688 88.5666634,26.7599988 89.1399996,27 C89.7133358,27.2400012 90.3333296,27.36 90.9999996,27.36 C91.6400028,27.36 92.2466634,27.2400012 92.8199996,27 C93.3933358,26.7599988 93.8866642,26.4266688 94.2999996,26 C94.713335,25.5733312 95.046665,25.0733362 95.2999996,24.5 C95.5533342,23.9266638 95.6799996,23.3200032 95.6799996,22.68 C95.6799996,22.01333 95.5533342,21.4000028 95.2999996,20.84 C95.046665,20.2799972 94.7066684,19.7866688 94.2799996,19.36 C93.8533308,18.9333312 93.3533358,18.6000012 92.7799996,18.36 C92.2066634,18.1199988 91.613336,18 90.9999996,18 C90.3599964,18 89.7600024,18.1266654 89.1999996,18.38 C88.6399968,18.6333346 88.1466684,18.9666646 87.7199996,19.38 C87.2933308,19.7933354 86.9533342,20.2799972 86.6999996,20.84 C86.446665,21.4000028 86.3199996,21.9999968 86.3199996,22.64 Z M102.56,12.48 L102.56,31.6 C102.56,32.7466724 102.493334,33.7733288 102.36,34.68 C102.226666,35.5866712 102.040001,36.3866632 101.8,37.08 C101.479998,37.9600044 100.980003,38.7799962 100.3,39.54 C99.6199962,40.3000038 98.8000044,40.9599972 97.8399996,41.52 C96.8799948,42.0800028 95.793339,42.5199984 94.5799996,42.84 C93.3666602,43.1600016 92.05334,43.32 90.6399996,43.32 C89.0399916,43.32 87.5733396,43.120002 86.2399996,42.72 C84.9066596,42.319998 83.7400046,41.7666702 82.7399996,41.06 C81.7399946,40.3533298 80.9200028,39.5266714 80.2799996,38.58 C79.6399964,37.6333286 79.213334,36.6000056 78.9999996,35.48 L87.1599996,35.48 C87.6666688,36.8400068 88.813324,37.52 90.5999996,37.52 C92.1200072,37.52 93.2866622,37.0933376 94.0999996,36.24 C94.913337,35.3866624 95.3199996,34.2000076 95.3199996,32.68 L95.3199996,30.72 C94.7866636,31.2266692 94.2733354,31.646665 93.7799996,31.98 C93.2866638,32.313335 92.7866688,32.5866656 92.2799996,32.8 C91.7733304,33.0133344 91.2400024,33.1666662 90.6799996,33.26 C90.1199968,33.3533338 89.5066696,33.4 88.8399996,33.4 C87.3733256,33.4 86.0266724,33.1466692 84.7999996,32.64 C83.5733268,32.1333308 82.5133374,31.4266712 81.6199996,30.52 C80.7266618,29.6133288 80.0333354,28.526673 79.5399996,27.26 C79.0466638,25.993327 78.7999996,24.5866744 78.7999996,23.04 C78.7999996,21.4666588 79.0666636,20.0066734 79.5999996,18.66 C80.1333356,17.3133266 80.859995,16.140005 81.7799996,15.14 C82.7000042,14.139995 83.7933266,13.3533362 85.0599996,12.78 C86.3266726,12.2066638 87.7066588,11.92 89.1999996,11.92 C91.6266784,11.92 93.666658,12.8266576 95.3199996,14.64 L95.3199996,12.48 L102.56,12.48 Z M105.08,12.48 L112.32,12.48 L112.32,15.08 C113.306671,13.879994 114.306661,13.0733354 115.32,12.66 C116.333338,12.2466646 117.519993,12.04 118.88,12.04 C120.320007,12.04 121.553328,12.273331 122.58,12.74 C123.606671,13.206669 124.479996,13.8666624 125.2,14.72 C125.786669,15.4133368 126.186665,16.1866624 126.4,17.04 C126.613334,17.8933376 126.72,18.8666612 126.72,19.96 L126.72,40 L119.48,40 L119.48,22.64 C119.48,21.6266616 119.406667,20.8066698 119.26,20.18 C119.113332,19.5533302 118.853335,19.0533352 118.48,18.68 C118.159998,18.3599984 117.800002,18.133334 117.4,18 C116.999998,17.866666 116.573335,17.8 116.12,17.8 C114.893327,17.8 113.953336,18.166663 113.3,18.9 C112.646663,19.633337 112.32,20.6799932 112.32,22.04 L112.32,33 L105.08,33 L105.08,12.48 Z" id="Design" fill="#374256"></path>
                <path d="M67.8800488,45.92 C66.0667064,43.7066556 63.8267288,42.6 61.1600488,42.6 C59.9867096,42.6 58.9000538,42.8133312 57.9000488,43.24 C56.9000438,43.6666688 56.0400524,44.246663 55.3200488,44.98 C54.6000452,45.713337 54.0333842,46.5866616 53.6200488,47.6 C53.2067134,48.6133384 53.0000488,49.7066608 53.0000488,50.88 C53.0000488,52.080006 53.2067134,53.1866616 53.6200488,54.2 C54.0333842,55.2133384 54.6067118,56.0933296 55.3400488,56.84 C56.0733858,57.5866704 56.9333772,58.1733312 57.9200488,58.6 C58.9067204,59.0266688 59.9733764,59.24 61.1200488,59.24 C63.626728,59.24 65.8800388,58.173344 67.8800488,56.04 L67.8800488,65.32 L67.0800488,65.6 C65.8800428,66.0266688 64.760054,66.339999 63.7200488,66.54 C62.6800436,66.740001 61.6533872,66.84 60.6400488,66.84 C58.5600384,66.84 56.566725,66.4466706 54.6600488,65.66 C52.7533726,64.8733294 51.0733894,63.7666738 49.6200488,62.34 C48.1667082,60.9133262 47.0000532,59.2200098 46.1200488,57.26 C45.2400444,55.2999902 44.8000488,53.1600116 44.8000488,50.84 C44.8000488,48.5199884 45.2333778,46.393343 46.1000488,44.46 C46.9667198,42.526657 48.1267082,40.860007 49.5800488,39.46 C51.0333894,38.059993 52.7200392,36.9666706 54.6400488,36.18 C56.5600584,35.3933294 58.5733716,35 60.6800488,35 C61.8800548,35 63.060043,35.1266654 64.2200488,35.38 C65.3800546,35.6333346 66.6000424,36.026664 67.8800488,36.56 L67.8800488,45.92 Z M77.0000487,32.8 L77.0000487,48.08 C77.9867203,46.879994 78.9867103,46.0733354 80.0000487,45.66 C81.0133871,45.2466646 82.2000419,45.04 83.5600487,45.04 C86.1467283,45.04 88.1000421,45.7533262 89.4200487,47.18 C90.7400553,48.6066738 91.4000487,50.5333212 91.4000487,52.96 L91.4000487,66 L84.1600487,66 L84.1600487,55.64 C84.1600487,54.5999948 84.0800495,53.7600032 83.9200487,53.12 C83.7600479,52.4799968 83.4933839,51.9866684 83.1200487,51.64 C82.4800455,51.0799972 81.7067199,50.8 80.8000487,50.8 C79.5733759,50.8 78.6333853,51.166663 77.9800487,51.9 C77.3267121,52.633337 77.0000487,53.6799932 77.0000487,55.04 L77.0000487,66 L77.0000487,32.8 Z M100.640049,55.68 C100.640049,56.34667 100.760047,56.9666638 101.000049,57.54 C101.24005,58.1133362 101.566713,58.6133312 101.980049,59.04 C102.393384,59.4666688 102.886712,59.7999988 103.460049,60.04 C104.033385,60.2800012 104.653379,60.4 105.320049,60.4 C105.960052,60.4 106.566712,60.2800012 107.140049,60.04 C107.713385,59.7999988 108.206713,59.4666688 108.620049,59.04 C109.033384,58.6133312 109.366714,58.1200028 109.620049,57.56 C109.873383,56.9999972 110.000049,56.4000032 110.000049,55.76 C110.000049,55.1199968 109.873383,54.5133362 109.620049,53.94 C109.366714,53.3666638 109.033384,52.8666688 108.620049,52.44 C108.206713,52.0133312 107.713385,51.6800012 107.140049,51.44 C106.566712,51.1999988 105.960052,51.08 105.320049,51.08 C104.653379,51.08 104.033385,51.1999988 103.460049,51.44 C102.886712,51.6800012 102.393384,52.0133312 101.980049,52.44 C101.566713,52.8666688 101.24005,53.3533306 101.000049,53.9 C100.760047,54.4466694 100.640049,55.0399968 100.640049,55.68 Z M108.760049,45.48 L116.040049,45.48 L116.040049,66 L108.760049,66 L108.760049,63.72 C107.213374,65.6666764 105.120062,66.64 102.480049,66.64 C100.986708,66.64 99.6133882,66.3666694 98.3600486,65.82 C97.106709,65.2733306 96.0133866,64.5066716 95.0800486,63.52 C94.1467106,62.5333284 93.4200512,61.37334 92.9000486,60.04 C92.380046,58.70666 92.1200486,57.2533412 92.1200486,55.68 C92.1200486,54.213326 92.3733794,52.8200066 92.8800486,51.5 C93.3867178,50.1799934 94.0933774,49.0266716 95.0000486,48.04 C95.9067198,47.0533284 96.986709,46.2733362 98.2400486,45.7 C99.4933882,45.1266638 100.880041,44.84 102.400049,44.84 C104.960061,44.84 107.08004,45.7333244 108.760049,47.52 L108.760049,45.48 Z M126.710068,51.52 L126.710068,66 L119.470068,66 L119.470068,51.52 L117.070068,51.52 L117.070068,45.48 L119.470068,45.48 L119.470068,39.32 L126.710068,39.32 L126.710068,45.48 L130.830068,45.48 L130.830068,51.52 L126.710068,51.52 Z M145.880048,50.76 C144.546708,50.0666632 143.240055,49.72 141.960048,49.72 C141.293378,49.72 140.753384,49.853332 140.340048,50.12 C139.926713,50.386668 139.720048,50.7466644 139.720048,51.2 C139.720048,51.4400012 139.753381,51.6333326 139.820048,51.78 C139.886715,51.9266674 140.033381,52.066666 140.260048,52.2 C140.486716,52.333334 140.820046,52.4533328 141.260048,52.56 C141.700051,52.6666672 142.280045,52.7999992 143.000048,52.96 C145.000058,53.360002 146.493377,54.0733282 147.480048,55.1 C148.46672,56.1266718 148.960048,57.439992 148.960048,59.04 C148.960048,60.240006 148.720051,61.3199952 148.240048,62.28 C147.760046,63.2400048 147.093386,64.0466634 146.240048,64.7 C145.386711,65.3533366 144.360054,65.8599982 143.160048,66.22 C141.960042,66.5800018 140.640056,66.76 139.200048,66.76 C136.426701,66.76 133.693395,65.9733412 131.000048,64.4 L133.640048,59.28 C135.666725,60.6666736 137.586706,61.36 139.400048,61.36 C140.066718,61.36 140.61338,61.2133348 141.040048,60.92 C141.466717,60.6266652 141.680048,60.2533356 141.680048,59.8 C141.680048,59.533332 141.646715,59.3133342 141.580048,59.14 C141.513381,58.9666658 141.373383,58.8066674 141.160048,58.66 C140.946714,58.5133326 140.633384,58.3800006 140.220048,58.26 C139.806713,58.1399994 139.266718,58.013334 138.600048,57.88 C136.360037,57.4266644 134.793386,56.7533378 133.900048,55.86 C133.006711,54.9666622 132.560048,53.7333412 132.560048,52.16 C132.560048,51.0133276 132.77338,49.9800046 133.200048,49.06 C133.626717,48.1399954 134.240044,47.3600032 135.040048,46.72 C135.840052,46.0799968 136.806709,45.5866684 137.940048,45.24 C139.073387,44.8933316 140.333375,44.72 141.720048,44.72 C143.986726,44.72 146.186704,45.1599956 148.320048,46.04 L145.880048,50.76 Z" id="Chats" fill="#374256"></path>
                <path d="M69.3199997,4.6 C69.3199997,4.0399972 69.4266653,3.5133358 69.6399997,3.02 C69.8533341,2.5266642 70.1466645,2.0933352 70.5199997,1.72 C70.8933349,1.3466648 71.3266639,1.0533344 71.8199997,0.84 C72.3133355,0.6266656 72.8399969,0.52 73.3999997,0.52 C73.9600025,0.52 74.4866639,0.6266656 74.9799997,0.84 C75.4733355,1.0533344 75.9066645,1.3466648 76.2799997,1.72 C76.6533349,2.0933352 76.9466653,2.5266642 77.1599997,3.02 C77.3733341,3.5133358 77.4799997,4.0399972 77.4799997,4.6 C77.4799997,5.1600028 77.3733341,5.6866642 77.1599997,6.18 C76.9466653,6.6733358 76.6533349,7.1066648 76.2799997,7.48 C75.9066645,7.8533352 75.4733355,8.1466656 74.9799997,8.36 C74.4866639,8.5733344 73.9600025,8.68 73.3999997,8.68 C72.8399969,8.68 72.3133355,8.5733344 71.8199997,8.36 C71.3266639,8.1466656 70.8933349,7.8533352 70.5199997,7.48 C70.1466645,7.1066648 69.8533341,6.6733358 69.6399997,6.18 C69.4266653,5.6866642 69.3199997,5.1600028 69.3199997,4.6 Z" id="Path" fill="#F7C761"></path>
            </g>
        </g>
    </g>
</svg>