<?xml version="1.0" encoding="UTF-8"?>
<svg width="76px" height="76px" viewBox="0 0 76 76" version="1.1" xmlns="http://www.w3.org/2000/svg" xmlns:xlink="http://www.w3.org/1999/xlink">
    <!-- Generator: Sketch 48.2 (47327) - http://www.bohemiancoding.com/sketch -->
    <title>matt_logo</title>
    <desc>Created with Sketch.</desc>
    <defs></defs>
    <g id="Logo-Brainstorm" stroke="none" stroke-width="1" fill="none" fill-rule="evenodd">
        <g id="matt_logo">
            <g id="Circular-Badge" transform="translate(3.000000, 3.000000)" stroke="#FAFAFF" stroke-width="4">
                <path d="M1.9453125,47.8630371 C2.94702148,44.9773922 14.6416351,29.6602747 18.2621905,29.0995703 C21.8827459,28.5388659 12.7763711,46.9197652 19.5266606,44.7996578 C26.2769501,42.6795504 36.0876395,20.0630596 39.4937915,22.4312229 C42.4737736,24.503087 35.1970212,44.155965 32.7568504,51.298464 C32.5795764,51.8173539 28.5887976,62.5423678 30.1481585,66.9790737 C31.6584617,71.2762004 39.5464307,69.593573 39.4937915,69.8010603" id="Path-52"></path>
                <path d="M0,35.4883141 L0,35.0001456 C0,15.6700989 15.6657836,0 35,0 L35,0 C54.3299662,0 70,15.6689942 70,35.0001456 L70,35.4883141 L70,35.4883141 C70,54.5485919 54.3342164,70 35,70 L35,70 C15.6700338,70 0,54.334606 0,35.4883141 L0,35.4883141 Z" id="Rectangle-5"></path>
            </g>
            <path d="M52.999712,45 L51.777092,47.1892047 C51.63838,47.4271264 51.38982,47.4050484 51.14126,47.2721506 L50.256072,46.8321441 L50.915836,50.1946971 C51.054552,50.8090174 50.609468,50.8090174 50.38974,50.5433945 L48.845032,48.8831841 L48.594232,49.7262841 C48.565324,49.8369974 48.438176,49.9532825 48.247384,49.9255922 L46.29404,49.5313137 L46.807092,51.3220492 C46.916952,51.7205075 47.002588,51.8854847 46.696216,51.9905783 L46,52.3047281 L49.362544,54.9268799 C49.495628,55.0260382 49.562912,55.2044509 49.515492,55.3659976 L49.221196,56.2931748 C50.37898,56.1650628 51.416976,56.0503718 52.574736,55.9224068 C52.677624,55.9211873 52.848204,56.0051286 52.847476,56.1188904 L52.6054801,59 L53.4252639,59 L53.168384,56.1261958 C53.167684,56.01239 53.32238,55.9211873 53.425264,55.9224068 C54.583024,56.0503718 55.62102,56.1650628 56.778808,56.2931748 L56.484508,55.3659976 C56.437092,55.2044509 56.504372,55.0260382 56.637456,54.9268799 L60,52.3047281 L59.303784,51.9905783 C58.997412,51.8854847 59.083052,51.7205075 59.192908,51.3220492 L59.705964,49.5313137 L57.752616,49.9255922 C57.561828,49.9532825 57.434676,49.8369974 57.405768,49.7262841 L57.154968,48.8831841 L55.610256,50.5433945 C55.390528,50.8090174 54.945444,50.8090174 55.084164,50.1946971 L55.743924,46.8321441 L54.85874,47.2721506 C54.610168,47.4050484 54.361624,47.4271264 54.222908,47.1892047" id="Leaf" fill="#51D6FF"></path>
        </g>
    </g>
</svg>