<?xml version="1.0" encoding="UTF-8"?>
<svg width="81px" height="44px" viewBox="0 0 81 44" version="1.1" xmlns="http://www.w3.org/2000/svg" xmlns:xlink="http://www.w3.org/1999/xlink">
    <!-- Generator: Sketch 51.2 (57519) - http://www.bohemiancoding.com/sketch -->
    <title>matt_logo</title>
    <desc>Created with Sketch.</desc>
    <defs>
        <linearGradient x1="50%" y1="0%" x2="50%" y2="99.3000361%" id="linearGradient-1">
            <stop stop-color="#FFFFFF" offset="0%"></stop>
            <stop stop-color="#E6E6F6" offset="100%"></stop>
        </linearGradient>
    </defs>
    <g id="matt_logo" stroke="none" stroke-width="1" fill="none" fill-rule="evenodd">
        <path d="M63.9270648,37.2442039 C65.4725749,35.1332273 65.7277111,32.213476 64.3449257,29.7948051 C63.9872782,29.1692332 61.6615683,25.1998518 57.3677958,17.8866609 C55.4663913,14.5816071 54.0104594,12.0503524 53,10.2928966 L54.0713685,10.8406912 C54.7988784,11.2408023 55.5263882,11.3072718 55.9323841,10.5909687 L59.0356735,4.87522975 C59.2977347,4.39255692 59.7237209,4.39185371 59.9862876,4.87522975 L63.091039,10.5909687 C63.4970466,11.3072718 64.2245096,11.2408023 64.9520546,10.8406912 L67.5428982,9.51597765 L65.6118477,19.6395084 C65.2058284,21.4890228 66.508544,21.4890228 67.1516655,20.6893204 L71.6728805,15.6909781 L72.4069466,18.2292724 C72.4915574,18.5625932 72.8637184,18.9126891 73.4221355,18.8293229 L78.1695328,17.8436467 C78.7096635,17.7315024 79.0191897,18.0738153 78.8709193,18.6061395 L77.6377238,23.0335912 C77.3161864,24.2332168 77.0655268,24.7299084 77.9622465,25.0463105 L80,25.9921111 L70.1581755,33.8865399 C69.7686522,34.1850723 69.5717305,34.722214 69.7105123,35.2085774 L70.5718985,38 C68.2683518,37.737812 66.1268205,37.4942949 63.9270648,37.2442039 Z" id="Combined-Shape" fill="#D7263D" fill-rule="nonzero"></path>
        <path d="M43.1426711,24.7756845 C43.0136353,24.9835332 42.8822643,25.1951461 42.7485579,25.4105231 C38.8202524,31.86554 36.6860547,35.3653089 36.345965,35.9098297 C35.7367679,36.8852209 34.8951051,37.6268416 33.9377207,38.1077264 C33.8927408,38.1352777 33.8472779,38.1623281 33.801335,38.1888661 C30.9105709,39.8586575 27.2141653,38.8677291 25.5451819,35.9755654 C25.2682929,35.4957473 23.4951443,32.4791701 20.2257362,26.9258336 C19.783109,26.169803 19.3635226,25.4530867 18.9669771,24.7756845 C18.8379413,24.9835332 18.7065702,25.1951461 18.5728639,25.4105231 C17.144794,27.7571367 15.9538271,29.7131951 14.9999631,31.2786985 C13.3299574,34.0195499 12.3867267,35.5632603 12.1702709,35.9098297 C10.401418,38.7419567 6.67269794,39.6032163 3.84194156,37.833507 C1.01118518,36.0637977 0.150342327,32.3332723 1.91919523,29.5011453 C2.21265291,29.0312875 4.04240076,26.048735 7.40843879,20.5534878 C10.8603827,14.948609 12.9641942,11.5348918 13.7198735,10.3123362 C14.2317518,9.30026292 15.0336946,8.4205895 16.0887918,7.81113393 C17.3754193,7.06793953 18.8216429,6.85182878 20.1776716,7.09583796 C20.9223324,7.22633595 21.6548038,7.49973432 22.3353716,7.9252062 C23.3404392,8.55354624 24.0971748,9.42907146 24.5760473,10.4238069 C25.2167291,11.5296641 26.9425628,14.5029613 29.7535486,19.3436986 C30.1986054,20.0946852 30.6200959,20.8060035 31.0180199,21.4776533 C31.2016318,21.1779272 31.3903361,20.869872 31.5841329,20.5534878 C35.0360767,14.948609 37.1398883,11.5348918 37.8955676,10.3123362 C38.4074458,9.30026292 39.2093887,8.4205895 40.2644859,7.81113393 C41.5511134,7.06793953 42.997337,6.85182878 44.3533657,7.09583796 C45.0980265,7.22633595 45.8304978,7.49973432 46.5110657,7.9252062 C47.5161333,8.55354624 48.2728689,9.42907146 48.7517414,10.4238069 C49.3924232,11.5296641 51.1182569,14.5029613 53.9292427,19.3436986 C57.7816984,25.8443127 59.8683703,29.3726518 60.1892586,29.9287156 C61.858242,32.8208793 60.8677931,36.5190746 57.9770291,38.1888661 C55.086265,39.8586575 51.3898594,38.8677291 49.720876,35.9755654 C49.4439869,35.4957473 47.6708384,32.4791701 44.4014303,26.9258336 C43.9588031,26.169803 43.5392167,25.4530867 43.1426711,24.7756845 Z" id="Combined-Shape" fill="url(#linearGradient-1)" fill-rule="nonzero"></path>
    </g>
</svg>