<?xml version="1.0" encoding="UTF-8" standalone="no"?>
<svg width="263px" height="84px" viewBox="0 0 263 84" version="1.1" xmlns="http://www.w3.org/2000/svg" xmlns:xlink="http://www.w3.org/1999/xlink">
    <!-- Generator: Sketch 3.6.1 (26313) - http://www.bohemiancoding.com/sketch -->
    <title>Artboard 2</title>
    <desc>Created with Sketch.</desc>
    <defs></defs>
    <g id="Page-2" stroke="none" stroke-width="1" fill="none" fill-rule="evenodd">
        <g id="Artboard-2" fill="#9B9B9B">
            <g id="OTTO-Motors" transform="translate(22.000000, 0.000000)">
                <path d="M29.6738795,0 C13.2858643,0 0,13.1863846 0,29.4516923 C0,45.7186154 13.2858643,58.905 29.6738795,58.905 C46.0618946,58.905 59.3477589,45.7186154 59.3477589,29.4516923 C59.3477589,13.1863846 46.0618946,0 29.6738795,0 M29.6738795,8.62615385 C41.2442837,8.62615385 50.6565283,17.9695385 50.6565283,29.4516923 C50.6565283,40.9354615 41.2442837,50.2772308 29.6738795,50.2772308 C18.1034753,50.2772308 8.6912306,40.9354615 8.6912306,29.4516923 C8.6912306,17.9695385 18.1034753,8.62615385 29.6738795,8.62615385" id="Fill-1"></path>
                <path d="M190.211325,0 C173.82331,0 160.537446,13.1863846 160.537446,29.4516923 C160.537446,45.7186154 173.82331,58.905 190.211325,58.905 C206.59934,58.905 219.885205,45.7186154 219.885205,29.4516923 C219.885205,13.1863846 206.59934,0 190.211325,0 M190.211325,8.62615385 C201.781729,8.62615385 211.193974,17.9695385 211.193974,29.4516923 C211.193974,40.9354615 201.781729,50.2772308 190.211325,50.2772308 C178.640921,50.2772308 169.228676,40.9354615 169.228676,29.4516923 C169.228676,17.9695385 178.640921,8.62615385 190.211325,8.62615385" id="Fill-4"></path>
                <path d="M105.593569,1.08424615 L105.593569,9.71686154 L87.68703,9.71686154 L87.68703,57.1849385 L78.9892891,57.1849385 L78.9892891,9.71686154 L61.0811223,9.71686154 L61.0811223,1.08424615 L105.593569,1.08424615 Z" id="Fill-7"></path>
                <path d="M158.803106,1.08424615 L158.803106,9.71686154 L140.896567,9.71686154 L140.896567,57.1849385 L132.198826,57.1849385 L132.198826,9.71686154 L114.290659,9.71686154 L114.290659,1.08424615 L158.803106,1.08424615 Z" id="Fill-9"></path>
                <path d="M36.3441548,80.3453538 L36.2660314,80.3453538 L32.0196979,74.0324308 L32.0196979,83.6552769 L29.6743677,83.6552769 L29.6743677,70.1862 L32.2150065,70.1862 L36.3441548,76.5572769 L40.4733031,70.1862 L43.0139419,70.1862 L43.0139419,83.6552769 L40.6279224,83.6552769 L40.6279224,73.9952769 L36.3441548,80.3453538 Z" id="Fill-11"></path>
                <path d="M67.5700863,72.1293462 C64.8748282,72.1293462 62.9933558,74.2648846 62.9933558,76.8995769 C62.9933558,79.5391154 64.9138899,81.7118077 67.6075204,81.7118077 C70.3027784,81.7118077 72.1842508,79.5762692 72.1842508,76.9415769 C72.1842508,74.3020385 70.2637167,72.1293462 67.5700863,72.1293462 M67.5700863,83.8845 C63.4018762,83.8845 60.4934064,80.7506538 60.4934064,76.9415769 C60.4934064,73.1276538 63.4393104,69.9518077 67.6075204,69.9518077 C71.777358,69.9518077 74.6858279,73.0905 74.6858279,76.8995769 C74.6858279,80.7102692 71.7382963,83.8845 67.5700863,83.8845" id="Fill-13"></path>
                <path d="M97.9415428,83.6554385 L95.53762,83.6554385 L95.53762,72.3784385 L91.232694,72.3784385 L91.232694,70.1863615 L102.244841,70.1863615 L102.244841,72.3784385 L97.9415428,72.3784385 L97.9415428,83.6554385 Z" id="Fill-15"></path>
                <path d="M126.639368,72.1293462 C123.945737,72.1293462 122.064265,74.2648846 122.064265,76.8995769 C122.064265,79.5391154 123.983171,81.7118077 126.678429,81.7118077 C129.373687,81.7118077 131.25516,79.5762692 131.25516,76.9415769 C131.25516,74.3020385 129.334626,72.1293462 126.639368,72.1293462 M126.639368,83.8845 C122.471158,83.8845 119.562688,80.7506538 119.562688,76.9415769 C119.562688,73.1276538 122.510219,69.9518077 126.678429,69.9518077 C130.846639,69.9518077 133.755109,73.0905 133.755109,76.8995769 C133.755109,80.7102692 130.807578,83.8845 126.639368,83.8845" id="Fill-17"></path>
                <path d="M157.090087,72.3420923 L153.618477,72.3420923 L153.618477,76.8635538 L157.10799,76.8635538 C158.815313,76.8635538 159.900903,75.9750923 159.900903,74.5923231 C159.900903,73.1110154 158.852747,72.3420923 157.090087,72.3420923 L157.090087,72.3420923 Z M159.939964,83.6562462 L156.605071,78.9587077 L153.618477,78.9587077 L153.618477,83.6562462 L151.234086,83.6562462 L151.234086,70.1855538 L157.283768,70.1855538 C160.403822,70.1855538 162.324356,71.8219385 162.324356,74.4582462 C162.324356,76.6874769 160.986493,78.0379385 159.087117,78.5580923 L162.75078,83.6562462 L159.939964,83.6562462 Z" id="Fill-19"></path>
                <path d="M185.848783,75.8445692 C188.719819,76.5359538 190.210674,77.5552615 190.210674,79.8054923 C190.210674,82.3464923 188.215272,83.8471846 185.363767,83.8471846 C183.290241,83.8471846 181.332273,83.1364154 179.703074,81.6922615 L181.138592,79.9977231 C182.437394,81.1139538 183.736196,81.7488 185.422359,81.7488 C186.895311,81.7488 187.826282,81.0784154 187.826282,80.0381077 C187.826282,79.0559538 187.284301,78.5374154 184.763193,77.9607231 C181.874254,77.2677231 180.246683,76.4212615 180.246683,73.9174154 C180.246683,71.5686462 182.18512,69.9936462 184.880378,69.9936462 C186.857877,69.9936462 188.428484,70.5913385 189.803781,71.6881846 L188.526138,73.4748 C187.302204,72.5718 186.081526,72.0888 184.841316,72.0888 C183.44486,72.0888 182.631075,72.8011846 182.631075,73.7041846 C182.631075,74.7638769 183.251179,75.2274923 185.848783,75.8445692" id="Fill-21"></path>
            </g>
        </g>
    </g>
</svg>