<?xml version="1.0" encoding="UTF-8"?>
<svg width="1000px" height="177px" viewBox="0 0 1000 177" version="1.1" xmlns="http://www.w3.org/2000/svg" xmlns:xlink="http://www.w3.org/1999/xlink">
    <!-- Generator: Sketch 52 (66869) - http://www.bohemiancoding.com/sketch -->
    <title>toyota</title>
    <desc>Created with Sketch.</desc>
    <g id="Page-1" stroke="none" stroke-width="1" fill="none" fill-rule="evenodd">
        <g id="toyota" fill="#FFFFFF">
            <path d="M499.24396,88.49359 C499.24396,39.61801 538.86921,0.00018 587.73737,0.00018 C636.62778,0.00018 676.24561,39.62542 676.24561,88.49359 C676.24561,137.3766 636.62037,176.987 587.73737,176.987 C538.86921,176.987 499.24396,137.3692 499.24396,88.49359 Z M587.73737,144.5367 C615.03625,144.5367 637.16145,119.43923 637.16145,88.48618 C637.16145,57.54054 615.03625,32.43566 587.73737,32.43566 C560.45333,32.43566 538.33553,57.53313 538.33553,88.48618 C538.33553,119.43923 560.46074,144.5367 587.73737,144.5367 Z" id="path2823"></path>
            <polygon id="path2825" points="776.66513 36.86811 776.66513 172.9696 739.38213 172.9696 739.38213 36.86811 739.50814 36.86811 687.3638 36.86811 687.3638 6.09295 828.68346 6.09295 828.68346 36.8607 776.79855 36.8607 776.66513 36.8607"></polygon>
            <path d="M873.78626,135.4272 L873.74916,135.4272 L859.44375,172.94 L815.89749,172.94 L884.74135,6.0633 L907.95614,6.0633 L931.14869,6.0633 L999.99996,172.94 L956.44629,172.94 L942.14088,135.4272 L942.10378,135.4272 L907.9561,135.4272 L873.78618,135.4272 L873.78626,135.4272 Z M907.95618,107.2611 L931.41557,107.2611 L931.40077,107.2681 L908.11186,46.19216 L907.78573,46.19216 L884.482,107.2681 L884.475,107.2611 L907.95663,107.2611 L907.95618,107.2611 Z" id="path2827"></path>
            <polygon id="path2829" points="89.316157 36.86811 89.316157 172.9696 52.025735 172.9696 52.025735 36.86811 52.151741 36.86811 0 36.86811 0 6.09295 141.32707 6.09295 141.32707 36.8607 89.442163 36.8607 89.316157 36.8607"></polygon>
            <path d="M150.87389,88.49359 C150.87389,39.61801 190.49913,0.00018 239.38212,0.00018 C288.2577,0.00018 327.88295,39.62542 327.88295,88.49359 C327.88295,137.3766 288.2577,176.987 239.38212,176.987 C190.49913,176.987 150.87389,137.3692 150.87389,88.49359 Z M239.38212,144.5367 C266.66617,144.5367 288.79879,119.43923 288.79879,88.48618 C288.79879,57.54054 266.67358,32.43566 239.38212,32.43566 C212.09067,32.43566 189.96546,57.53313 189.96546,88.48618 C189.96546,119.43923 212.09067,144.5367 239.38212,144.5367 Z" id="path2831"></path>
            <polygon id="path2833" points="413.55975 172.9696 432.46809 172.9696 432.46809 110.38902 432.46809 109.60333 497.51694 6.09295 453.97809 6.09295 413.55975 76.23393 373.14882 6.09295 329.59515 6.09295 394.65141 109.60333 394.65141 110.38161 394.65141 172.9622 413.55975 172.9622"></polygon>
        </g>
    </g>
</svg>