<?xml version="1.0" encoding="UTF-8"?>
<svg width="1072px" height="305px" viewBox="0 0 1072 305" version="1.1" xmlns="http://www.w3.org/2000/svg" xmlns:xlink="http://www.w3.org/1999/xlink">
    <!-- Generator: Sketch 52 (66869) - http://www.bohemiancoding.com/sketch -->
    <title>tripzaar</title>
    <desc>Created with Sketch.</desc>
    <g id="tripzaar" stroke="none" stroke-width="1" fill="none" fill-rule="evenodd">
        <path d="M99.3609853,67.0677924 L118.802892,67.0677924 C123.663369,67.0677924 125.664742,68.2073404 124.80701,73.0504196 L118.802892,107.521748 C118.231071,110.940392 116.801519,113.789262 111.655132,113.789262 L91.0695838,113.789262 L78.7754368,183.586581 C78.4895264,185.295903 78.203616,186.720338 78.203616,187.859886 C78.203616,190.708756 79.3472576,191.848304 83.3500031,191.848304 L97.0737021,191.848304 C101.076448,191.848304 102.79191,192.702965 101.934179,197.830931 L96.5018813,228.883616 C95.9300605,232.30226 95.0723293,234.296469 89.3541214,235.15113 C77.3458848,237.145339 71.3417665,238 58.4757987,238 C38.462071,238 13.5878666,229.738277 13.5878666,196.691383 C13.5878666,192.418078 14.1596874,187.574999 15.0174186,182.447033 L27.0256552,113.789262 L11.3005835,110.940392 C8.15556911,110.370618 5.29646515,109.23107 6.15419634,104.672878 L11.5864939,73.0504196 C12.1583146,69.6317755 13.873777,67.0677924 19.0201641,67.0677924 L35.3170567,67.0677924 L39.3198022,43.7070573 C39.891623,40.2884132 41.0352646,38.5790911 46.7534725,37.7244301 L97.9314333,29.1778197 C103.935552,28.3231587 105.936924,30.6022548 105.079193,34.8755599 L99.3609853,67.0677924 Z M227.81091,64 L229.80999,64 C234.6649,64 236.66398,65.425 235.807232,69.7 L228.667658,109.885 C228.096492,113.02 227.239744,115.585 222.099251,115.585 L220.10017,115.585 C202.679612,115.585 193.826541,117.01 186.972551,120.43 L167.838495,228.73 C167.267329,232.15 166.124997,235 160.984504,235 L109.579577,235 C106.152582,235 103.296753,233.86 104.153502,228.73 L131.855046,72.55 C132.426212,69.415 133.854126,66.85 138.423453,66.85 L183.545556,66.85 C186.972551,66.85 189.257214,68.56 188.400465,72.55 L186.686968,80.815 C198.110285,67.42 214.388512,64 227.81091,64 Z M257.622939,13 L311.189972,13 C314.591054,13 317.708712,13.8541667 316.858441,18.9791667 L311.756819,48.0208333 C311.189972,51.4375 309.489432,54 304.104386,54 L250.537353,54 C245.435731,54 244.58546,51.1527778 245.152307,48.0208333 L250.253929,18.9791667 C250.820776,15.5625 252.521317,13 257.622939,13 Z M220.525393,235 C217.086184,235 214.506776,232.152542 215.079978,228.735593 L242.593655,72.979661 C243.166856,69.5627119 245.173062,67 250.331876,67 L301.633419,67 C307.078835,67 307.365435,69.5627119 306.792234,72.979661 L279.278557,228.735593 C278.705355,232.152542 276.985751,235 271.826936,235 L220.525393,235 Z M464,124.171103 C464,129.304183 463.429667,134.437262 462.574167,139.855513 L458.581836,162.098859 C449.456508,212.859316 419.799191,237.954373 367.043386,237.954373 C363.621388,237.954373 355.636726,237.098859 351.644395,236.243346 L343.374566,283.011407 C342.804233,286.43346 340.237734,289 336.815736,289 L285.770931,289 C282.634099,289 279.497268,287.859316 280.067601,283.011407 L315.713414,80.8250951 C316.568914,75.9771863 319.135413,72.8403042 329.11624,70.8441065 C343.089399,68.2775665 368.184052,64 397.556203,64 C439.47568,64 464,88.2395437 464,124.171103 Z M404,129.830579 C404,120.991736 400.546763,117 391.625899,117 C384.143885,117 381.553957,117.285124 376.086331,117.855372 L364,185.144628 C368.604317,185.429752 372.920863,186 379.539568,186 C391.338129,186 395.942446,178.586777 398.820144,162.619835 L402.848921,140.380165 C403.71223,136.38843 404,132.681818 404,129.830579 Z M607.980197,67 C611.120475,67 613.689794,68.1389831 612.833354,72.6949153 L607.409237,103.162712 C606.267318,109.427119 605.410878,111.135593 597.417442,119.677966 L542.319831,179.759322 C541.177911,181.183051 540.321472,182.322034 540.321472,183.176271 C540.321472,184.315254 541.463391,185.169492 543.17627,185.169492 L588.282087,185.169492 C590.851406,185.169492 592.849765,185.738983 592.278805,189.725424 L585.427289,229.305085 C584.856329,232.437288 583.42893,235 578.575772,235 L456.675875,235 C453.250116,235 451.537237,233.00678 452.108197,229.305085 L457.246834,199.40678 C458.388754,193.427119 459.530673,190.579661 464.383831,185.169492 L522.907201,121.955932 C524.04912,120.532203 524.90556,119.39322 524.90556,118.538983 C524.90556,117.4 523.76364,116.830508 522.050761,116.830508 L477.801384,116.830508 C475.232065,116.830508 473.519186,115.122034 474.090146,112.274576 L481.227142,72.6949153 C481.798102,69.5627119 482.940021,67 487.793179,67 L607.980197,67 Z M767.387995,70.8459016 C773.952099,71.9868852 777.94764,73.9836066 776.806057,80.8295082 L750.835037,229.442623 C750.264245,232.580328 749.122662,235.147541 745.127121,235.147541 L704.315518,235.147541 C699.178393,235.147541 698.03681,232.580328 698.607601,229.442623 L699.749185,221.455738 C686.620977,232.865574 675.490539,238 653.229665,238 C622.406916,238 603,218.603279 603,185.8 C603,176.386885 603.570792,171.537705 604.426979,166.403279 L608.993312,139.87541 C619.552958,78.2622951 655.227436,64 701.461559,64 C722.866246,64 745.697912,67.1377049 767.387995,70.8459016 Z M707,116.860656 C702.460993,116.286885 698.205674,116 694.801418,116 C682.602837,116 676.361702,120.303279 672.957447,139.52459 L667.851064,167.352459 C667.283688,170.508197 667,173.377049 667,175.672131 C667,184.278689 670.971631,186 678.06383,186 C683.737589,186 690.829787,183.704918 695.652482,181.409836 L707,116.860656 Z M936.387995,70.8459016 C942.952099,71.9868852 946.94764,73.9836066 945.806057,80.8295082 L919.835037,229.442623 C919.264245,232.580328 918.122662,235.147541 914.127121,235.147541 L873.315518,235.147541 C868.178393,235.147541 867.03681,232.580328 867.607601,229.442623 L868.749185,221.455738 C855.620977,232.865574 844.490539,238 822.229665,238 C791.406916,238 772,218.603279 772,185.8 C772,176.386885 772.570792,171.537705 773.426979,166.403279 L777.993312,139.87541 C788.552958,78.2622951 824.227436,64 870.461559,64 C891.866246,64 914.697912,67.1377049 936.387995,70.8459016 Z M875,116.860656 C870.460993,116.286885 866.205674,116 862.801418,116 C850.602837,116 844.361702,120.303279 840.957447,139.52459 L835.851064,167.352459 C835.283688,170.508197 835,173.377049 835,175.672131 C835,184.278689 838.971631,186 846.06383,186 C851.737589,186 858.829787,183.704918 863.652482,181.409836 L875,116.860656 Z M1053.81091,64 L1055.80999,64 C1060.6649,64 1062.66398,65.425 1061.80723,69.7 L1054.66766,109.885 C1054.09649,113.02 1053.23974,115.585 1048.09925,115.585 L1046.10017,115.585 C1028.67961,115.585 1019.82654,117.01 1012.97255,120.43 L993.838495,228.73 C993.267329,232.15 992.124997,235 986.984504,235 L935.579577,235 C932.152582,235 929.296753,233.86 930.153502,228.73 L957.855046,72.55 C958.426212,69.415 959.854126,66.85 964.423453,66.85 L1009.54556,66.85 C1012.97255,66.85 1015.25721,68.56 1014.40047,72.55 L1012.68697,80.815 C1024.11028,67.42 1040.38851,64 1053.81091,64 Z" fill="#FFFFFF"></path>
    </g>
</svg>